<?xml version="1.0" standalone="no"?><!DOCTYPE svg PUBLIC "-//W3C//DTD SVG 1.1//EN" "http://www.w3.org/Graphics/SVG/1.1/DTD/svg11.dtd"><svg t="1627864774772" class="icon" viewBox="0 0 1187 1024" version="1.1" xmlns="http://www.w3.org/2000/svg" p-id="4245" xmlns:xlink="http://www.w3.org/1999/xlink" width="231.8359375" height="200"><defs><style type="text/css"></style></defs><path d="M1182.068515 378.083741a152.91789 152.91789 0 0 0-64.208809-105.83143 91.945623 91.945623 0 0 1-32.087003-47.573681l-3.480153-9.500816a193.426862 193.426862 0 0 0-131.967373-110.564437 47.608483 47.608483 0 0 1-28.537249-20.219685 160.087004 160.087004 0 0 0-146.166395-58.257749 38.281675 38.281675 0 0 1-19.036432-1.183251 213.855356 213.855356 0 0 0-66.575313-23.76944L680.508972 0h-36.994018l-3.480152 1.183252-15.451876 4.767808a378.222947 378.222947 0 0 0-39.221316 13.085373l-3.480153-1.183252a210.549212 210.549212 0 0 0-211.871669 47.53888l-1.183252 2.366503a157.650897 157.650897 0 0 0-146.166395 58.257749 4.419793 4.419793 0 0 1-4.767808 3.480152 178.148994 178.148994 0 0 0-146.166395 130.784122 155.458401 155.458401 0 0 1-27.353997 52.202284A213.472539 213.472539 0 0 0 8.700381 388.558999c0 3.480152-1.183252 4.767809-1.183252 8.317564-1.183252 4.767809-3.480152 11.902121-4.767809 19.036433a208.46112 208.46112 0 0 0 0 66.575313 21.368135 21.368135 0 0 0 3.480153 13.085372c0 1.183252 0 1.183252 1.183251 3.480153a237.833605 237.833605 0 0 0 240.130506 190.225122h22.586188c27.353997 1.183252 30.903752 4.767809 35.671561 15.451876a74.823274 74.823274 0 0 0 19.036433 28.537248l1.183251 1.183252a225.479065 225.479065 0 0 0 183.195215 83.523654 175.9913 175.9913 0 0 1 143.869494 110.564438 160.783034 160.783034 0 0 1 4.767809 34.488308 121.318108 121.318108 0 0 0 6.960305 43.989125l4.767808 16.635128h204.493747l-3.480152-27.353997a142.686243 142.686243 0 0 0-3.480153-23.76944v-3.480152a569.318108 569.318108 0 0 0-8.317564-60.624252 233.796629 233.796629 0 0 0 198.542687-143.869495 209.191952 209.191952 0 0 0 19.036432-71.343121v-1.183252a171.919521 171.919521 0 0 0 99.88037-135.55193 534.829799 534.829799 0 0 0 5.951061-178.323002z m-93.96411 168.822186a107.88472 107.88472 0 0 1-42.805873 71.343121 300.371941 300.371941 0 0 0-29.7205-76.076128c-22.586188-40.439369-93.964111-72.526373-102.246874-77.294182a16.182708 16.182708 0 0 0-17.818379 0 22.272974 22.272974 0 0 0-11.902121 29.720501 17.087548 17.087548 0 0 0 11.902121 11.90212 237.972811 237.972811 0 0 1 83.21044 58.257749 318.190321 318.190321 0 0 1 28.537249 76.076129l1.183251 3.480152a56.308864 56.308864 0 0 0-11.90212 28.537248 146.758021 146.758021 0 0 1-11.902121 49.940185 190.573138 190.573138 0 0 1-164.054377 104.613377 40.23056 40.23056 0 0 0-29.720501 11.902121 42.875476 42.875476 0 0 0-5.95106 30.903752c3.480152 20.219685 5.95106 64.208809 6.960304 82.027188v3.480153H723.175639a73.083197 73.083197 0 0 0-1.183252-15.451876 329.640022 329.640022 0 0 0-5.95106-66.575313c-20.219685-61.807504-122.466558-130.784122-197.359435-130.784122h-1.183251a170.945079 170.945079 0 0 1-134.333878-58.257749l-1.183251-3.480152a99.184339 99.184339 0 0 1-9.500816-14.268624 72.178358 72.178358 0 0 0-11.902121-21.402936l1.183252 1.183251s-3.480152-10.684067-3.480152-11.90212a86.307776 86.307776 0 0 1 10.684067-64.20881 213.576944 213.576944 0 0 1 72.526373-57.074497h1.183252a22.690593 22.690593 0 1 0-17.81838-41.761827c-1.183252 0-1.183252 1.183252-3.480152 1.183252a270.059815 270.059815 0 0 0-90.483958 71.343121 118.325177 118.325177 0 0 0-19.036433 79.660686h-33.339859a345.82273 345.82273 0 0 1-35.671561-1.183252 173.346384 173.346384 0 0 1-142.686242-136.735182c0-1.183252-1.183252-4.767809-1.183252-5.951061l-3.480152 1.183252c0-1.183252 0-1.183252-1.183252-3.480152a317.49429 317.49429 0 0 1 0-47.573682 15.799891 15.799891 0 0 1 3.480152-9.500815c1.183252-4.767809 3.480152-6.960305 3.480153-11.902121a128.278412 128.278412 0 0 1 11.90212-32.087004 104.404568 104.404568 0 0 0 46.355628 57.074497 278.412181 278.412181 0 0 0 58.257749 21.402937 89.161501 89.161501 0 0 0-10.684067 68.941816v4.767808a22.272974 22.272974 0 0 0 29.7205 11.902121 24.813486 24.813486 0 0 0 14.268624-24.952692 70.194671 70.194671 0 0 1 28.432844-66.401305 127.408374 127.408374 0 0 0 15.451876-17.818379c4.767809-5.95106 15.451876-20.219685 3.480153-33.305057-4.767809-5.95106-14.268624-1.183252-14.268625-1.183252a194.610114 194.610114 0 0 0-26.170745 14.268624c-5.95106 3.480152-15.451876 1.183252-19.036433 3.480153a218.27515 218.27515 0 0 1-56.900489-20.080479c-15.451876-6.960305-29.7205-42.805873-35.671561-66.575313 4.767809-10.684067 9.500816-21.402936 14.268625-33.305057a119.438825 119.438825 0 0 1 98.801522-88.047852 55.264818 55.264818 0 0 0 29.720501-17.818379 106.28385 106.28385 0 0 1 96.295812-39.221316 36.158782 36.158782 0 0 0 35.671561-11.902121 147.21044 147.21044 0 0 1 152.187058-33.305057h1.183252a43.014682 43.014682 0 0 0 32.087004-1.183252 218.901577 218.901577 0 0 1 29.7205-10.684067 37.759652 37.759652 0 0 0 10.684068-3.480153h21.402936l4.767809 1.183252a103.53453 103.53453 0 0 1 22.586188 5.951061 139.728113 139.728113 0 0 0-45.24198 112.93094 32.92224 32.92224 0 0 0 1.183252 10.684068 22.272974 22.272974 0 0 0 29.7205 11.90212 21.333333 21.333333 0 0 0 14.268625-20.219684 97.896683 97.896683 0 0 1 50.148994-96.365416h19.036432a99.949973 99.949973 0 0 1 95.112562 36.854812 80.043502 80.043502 0 0 0 49.940185 32.087004 127.164763 127.164763 0 0 1 91.562805 76.076128l3.480153 5.951061a131.097336 131.097336 0 0 0 46.355628 61.807504 93.616096 93.616096 0 0 1 39.047308 65.426862 666.51876 666.51876 0 0 1-2.366503 153.37031z m-253.25068-292.332789c-6.960305 0-24.952692-1.183252-24.952692 19.036432-1.183252 16.635128 13.085372 19.036433 20.219685 19.036433h3.480152c71.343121 13.085372 103.430125 46.355628 111.747689 115.332246a17.887983 17.887983 0 0 0 8.317564 16.635128 37.794454 37.794454 0 0 0 10.684067 3.480152h3.480153c15.451876-1.183252 15.451876-16.635128 15.451876-22.586188v-6.960305a12.80696 12.80696 0 0 1-2.366504-8.317563 165.307232 165.307232 0 0 0-146.166395-135.551931z m48.722131 96.295813a17.191952 17.191952 0 0 0-15.451876 0 22.62099 22.62099 0 0 0-11.90212 19.036432 123.336596 123.336596 0 0 1-35.671561 59.441001 137.083197 137.083197 0 0 1-135.55193 40.439369 140.667754 140.667754 0 0 1-115.332246-129.60087v-1.183252c0-6.960305-1.183252-22.586188-20.219685-20.219684-15.451876 1.183252-15.451876 15.451876-15.451876 23.76944v8.317564a179.053834 179.053834 0 0 0 96.295813 142.686242 113.000544 113.000544 0 0 1 72.526373 95.112561c1.183252 16.635128 10.684067 22.586188 19.036433 22.586188 1.183252-2.366504 2.366504-2.366504 2.366504-2.366503a11.380098 11.380098 0 0 0 11.90212-6.960305 26.449157 26.449157 0 0 0 3.480153-20.219684 110.355628 110.355628 0 0 0-20.219685-63.025558 47.399674 47.399674 0 0 1-3.480152-4.767808 31.32137 31.32137 0 0 0 8.317564-1.183252 180.237085 180.237085 0 0 0 67.758564-15.451876 184.900489 184.900489 0 0 0 103.430125-114.148994c3.480152-16.635128 0-28.537249-11.902121-32.087004z m-428.058727 74.892876a23.456226 23.456226 0 0 0-16.635128-6.960304 13.224579 13.224579 0 0 0-11.902121 6.960304c-3.480152 4.767809-10.684067 15.451876 4.767809 28.537249 1.183252 1.183252 1.183252 1.183252 3.480152 1.183251l1.183252 1.183252a80.495922 80.495922 0 0 1 28.537248 71.343121 22.133768 22.133768 0 0 1-4.454594 12.946167c-1.183252 3.480152-3.480152 8.317564-4.767809 11.90212 0 1.183252 0 1.183252-1.183252 3.480153-1.183252 4.767809-8.317564 20.219685 6.960305 27.353996a26.797172 26.797172 0 0 0 8.317564 1.183252 12.876563 12.876563 0 0 0 6.960304-1.183252 23.943448 23.943448 0 0 0 13.085373-19.036432 121.561718 121.561718 0 0 0 11.90212-46.355628 107.88472 107.88472 0 0 0-46.112017-92.676455zM407.943448 218.901577c-15.451876-10.684067-24.952692 3.480152-28.537249 8.317564l-1.183252 1.183252a101.968461 101.968461 0 0 1-131.967373 34.488308h-1.044046c-4.767809-1.183252-20.219685-8.317564-27.353997 8.317564-3.480152 8.317564-3.480152 19.036433 13.085373 27.353997a100.263187 100.263187 0 0 0 52.202284 13.085373h8.317563a135.377923 135.377923 0 0 0 117.837956-59.545406l1.183252-1.183251a25.091898 25.091898 0 0 0 6.960304-19.036433 21.159326 21.159326 0 0 0-9.500815-13.085373z m456.70038 414.799347a115.43665 115.43665 0 0 1-149.646547 28.537249l-1.183252-1.183252a45.241979 45.241979 0 0 0-19.036432-3.480152c-4.767809 1.183252-6.960305 4.767809-10.684068 10.684067-4.767809 10.684067-1.183252 20.219685 13.085373 28.537249a157.442088 157.442088 0 0 0 74.892876 20.219684 150.272974 150.272974 0 0 0 118.882001-58.257748c3.480152-4.767809 16.635128-20.219685 1.183252-32.087004-10.684067-9.500816-22.586188 2.366504-26.170745 5.95106l-1.183252 1.183252zM578.122893 252.102229a78.964655 78.964655 0 0 1 72.526373 72.526374v3.480152a20.880914 20.880914 0 0 0 6.960304 16.635128 34.801523 34.801523 0 0 0 11.902121 3.480152h1.183252c17.81838 0 17.81838-14.268624 17.818379-20.219685v-3.480152a121.805329 121.805329 0 0 0-103.430125-108.197934 32.957042 32.957042 0 0 0-23.76944 3.480153 14.512235 14.512235 0 0 0-6.960304 13.085372c-4.767809 16.635128 14.268624 19.036433 23.76944 19.036433z" p-id="4246" fill="#515151"></path></svg>