<?xml version="1.0" standalone="no"?><!DOCTYPE svg PUBLIC "-//W3C//DTD SVG 1.1//EN" "http://www.w3.org/Graphics/SVG/1.1/DTD/svg11.dtd"><svg t="1627864923602" class="icon" viewBox="0 0 1181 1024" version="1.1" xmlns="http://www.w3.org/2000/svg" p-id="6076" xmlns:xlink="http://www.w3.org/1999/xlink" width="230.6640625" height="200"><defs><style type="text/css"></style></defs><path d="M1168.574622 304.443077a162.422154 162.422154 0 0 0-111.616-104.172308c-47.852308-12.721231-95.113846-15.990154-140.8-9.097846-52.814769 7.876923-84.007385 26.505846-84.401231 26.702769a22.685538 22.685538 0 0 1-31.389539-7.876923 23.552 23.552 0 0 1 7.561846-31.980307c1.575385-1.024 37.730462-23.04 98.697847-32.571077a371.672615 371.672615 0 0 1 98.894769-1.811693c8.152615 0.787692 13.312-8.664615 7.955692-15.163077-74.043077-88.024615-174.355692-152.930462-366.198154-119.571692a114.491077 114.491077 0 0 0-71.876923 43.913846c-17.880615 23.236923-33.792 51.987692-39.936 84.755693-9.137231 48.758154 4.765538 99.131077 41.314462 149.661538a23.945846 23.945846 0 0 1-3.977846 33.004308 22.173538 22.173538 0 0 1-32.177231-4.647385c-38.124308-52.381538-56.004923-105.590154-53.405539-158.798769-49.624615 35.997538-96.098462 40.251077-115.2 40.251077-5.12 0-8.113231-0.196923-8.940307-0.393846a23.079385 23.079385 0 0 1-20.243693-25.521231 22.843077 22.843077 0 0 1 25.009231-20.598154c3.387077 0.393846 76.484923 5.632 139.815385-78.690462a36.076308 36.076308 0 0 1 3.780923-4.056615c4.765538-9.294769 9.728-17.998769 15.281231-26.308923 5.159385-7.68 0.787692-18.392615-8.152616-20.007385C413.926006 1.417846 227.046006-22.843077 134.531545 187.943385c-3.584 8.270769 3.150769 17.408 11.894153 15.556923a273.014154 273.014154 0 0 1 99.288616-0.393846c12.327385 2.244923 21.267692 14.178462 19.298461 26.702769a23.04 23.04 0 0 1-26.624 19.219692c-54.429538-9.728-107.638154-0.590769-158.089846 27.490462-0.196923 0-0.393846 0.236308-0.393846 0.236307A136.192 136.192 0 0 0 19.725391 346.545231c-24.615385 64.315077-27.175385 137.531077-0.984616 196.411077 60.179692 135.325538 145.959385 168.093538 246.665847 156.750769-12.721231-53.799385-4.765538-100.509538-4.371693-102.951385a22.803692 22.803692 0 0 1 26.387693-18.786461 23.276308 23.276308 0 0 1 18.510769 26.899692c0 0.590769-3.623385 22.252308-1.220923 51.2a141.745231 141.745231 0 0 0 56.398769 101.927385c33.949538 25.481846 78.848 46.08 133.238154 44.110769a72.704 72.704 0 0 0 56.595692-31.153231c21.858462-31.153231 44.307692-60.888615 67.938462-83.377231 39.699692-37.612308 78.257231-49.939692 117.956923-37.612307 11.697231 3.623385 19.298462 15.596308 16.462769 27.726769a22.843077 22.843077 0 0 1-29.144615 16.974769c-37.769846-12.130462-73.688615 20.440615-110.434462 67.977846a32.531692 32.531692 0 0 0 5.356308 44.898462c75.657846 62.109538 96.295385 164.233846 106.653538 216.457846h111.182769s-27.175385-161.240615 0-194.166154c36.745846-44.504615 206.375385-38.872615 240.482462-172.780308a64.905846 64.905846 0 0 0-13.075692-57.659076c-47.064615-54.823385-108.032-57.028923-111.222154-57.028924a22.882462 22.882462 0 0 1-22.449231-23.47323 23.236923 23.236923 0 0 1 23.236923-23.079385c3.977846 0 79.635692 2.048 139.618462 66.953846 7.325538 7.876923 19.849846 7.876923 26.781538-0.393846 49.270154-58.446769 80.462769-164.233846 48.285539-257.929846zM625.578929 449.890462a23.04 23.04 0 0 1-25.009231 20.873846c-30.798769-3.072-55.217231 8.861538-74.67323 36.78523-15.281231 21.858462-21.267692 45.292308-21.464616 45.528616a23.000615 23.000615 0 0 1-27.766154 16.974769 23.236923 23.236923 0 0 1-16.699076-28.120615c0.393846-1.181538 7.955692-31.940923 28.59323-61.479385 28.987077-41.275077 69.316923-60.691692 116.381539-56.044308 12.721231 1.181538 21.858462 12.563692 20.637538 25.481847z" p-id="6077" fill="#515151"></path></svg>